# xmcd
#
# Track frame offsets: 
#        150
#        23748
#        43109
#        66707
#
# Disc length: 1143 seconds
#
# Revision: 0
# Processed by: cddbd v1.5.2PL0 Copyright (c) Steve Scherf et al.
# Submitted via: ExactAudioCopyFreeDBPlugin 1.0
#
DISCID=35047504
DTITLE=SPEED - 指環
DYEAR=2010
DGENRE=JPop
TTITLE0=指環
TTITLE1=Tracks
TTITLE2=指環(Instrumental)
TTITLE3=Tracks(Instrumental)
EXTD=
EXTT0=
EXTT1=
EXTT2=
EXTT3=
PLAYORDER=
